<svg width="60" height="60" viewBox="0 0 60 60" fill="none" xmlns="http://www.w3.org/2000/svg">
<path fill-rule="evenodd" clip-rule="evenodd" d="M40.4651 2.09302C40.4651 0.937078 41.4022 0 42.5581 0H46.7442C54.0651 0 60 5.93483 60 13.2558V17.4419C60 18.5978 59.0629 19.5349 57.9069 19.5349C56.751 19.5349 55.8139 18.5978 55.8139 17.4419V13.2558C55.8139 8.24672 51.7533 4.18605 46.7442 4.18605H42.5581C41.4022 4.18605 40.4651 3.24897 40.4651 2.09302Z" fill="#1B93C5"/>
<path fill-rule="evenodd" clip-rule="evenodd" d="M2.09302 19.5349C0.937078 19.5349 -4.0961e-08 18.5978 -9.1489e-08 17.4419L-2.74467e-07 13.2558C-7.60816e-07 5.93483 5.93483 -2.16677e-06 13.2558 -2.48678e-06L17.4419 -2.66976e-06C18.5978 -2.72028e-06 19.5349 0.937076 19.5349 2.09302C19.5349 3.24897 18.5978 4.18604 17.4419 4.18604L13.2558 4.18604C8.24672 4.18604 4.18605 8.24672 4.18605 13.2558L4.18605 17.4419C4.18605 18.5978 3.24897 19.5349 2.09302 19.5349Z" fill="#1B93C5"/>
<path fill-rule="evenodd" clip-rule="evenodd" d="M19.5349 57.9069C19.5349 59.0629 18.5978 60 17.4418 60L13.2558 60C5.9348 60 -3.29438e-05 54.0651 -3.35838e-05 46.7442L-3.39497e-05 42.5581C-3.40508e-05 41.4022 0.937044 40.4651 2.09299 40.4651C3.24893 40.4651 4.18601 41.4022 4.18601 42.5581L4.18601 46.7442C4.18601 51.7533 8.24669 55.8139 13.2558 55.8139L17.4418 55.8139C18.5978 55.8139 19.5349 56.751 19.5349 57.9069Z" fill="#1B93C5"/>
<path fill-rule="evenodd" clip-rule="evenodd" d="M57.907 40.4651C59.0629 40.4651 60 41.4022 60 42.5581L60 46.7442C60 54.0651 54.0652 60 46.7442 60L42.5581 60C41.4022 60 40.4651 59.0629 40.4651 57.9069C40.4651 56.751 41.4022 55.8139 42.5581 55.8139L46.7442 55.8139C51.7533 55.8139 55.814 51.7533 55.814 46.7442L55.814 42.5581C55.814 41.4022 56.751 40.4651 57.907 40.4651Z" fill="#1B93C5"/>
<path fill-rule="evenodd" clip-rule="evenodd" d="M30.0005 18.1395C31.1565 18.1395 32.0936 19.0766 32.0936 20.2325V30.6542C32.0936 33.2218 30.5304 35.5307 28.1465 36.4842L27.2895 36.827C26.2162 37.2563 24.9981 36.7343 24.5688 35.661C24.1395 34.5877 24.6616 33.3697 25.7348 32.9404L26.5918 32.5976C27.3864 32.2797 27.9075 31.5101 27.9075 30.6542V20.2325C27.9075 19.0766 28.8446 18.1395 30.0005 18.1395Z" fill="#1B93C5"/>
<path fill-rule="evenodd" clip-rule="evenodd" d="M18.361 43.0179C17.844 44.0518 18.2631 45.3091 19.297 45.826L22.2268 47.2909C24.2612 48.3081 26.5045 48.8377 28.779 48.8377L29.8266 48.8377C32.1011 48.8377 34.3444 48.3081 36.3788 47.2909L39.3086 45.826C40.3425 45.3091 40.7616 44.0518 40.2446 43.0179C39.7276 41.984 38.4704 41.5649 37.4365 42.0819L34.5067 43.5468C33.0536 44.2734 31.4512 44.6516 29.8266 44.6516L28.779 44.6516C27.1543 44.6516 25.552 44.2734 24.0988 43.5468L21.169 42.0819C20.1351 41.5649 18.8779 41.984 18.361 43.0179Z" fill="#1B93C5"/>
<path fill-rule="evenodd" clip-rule="evenodd" d="M42.5581 18.1395C43.7141 18.1395 44.6511 19.0766 44.6511 20.2325V26.5116C44.6511 27.6675 43.7141 28.6046 42.5581 28.6046C41.4022 28.6046 40.4651 27.6675 40.4651 26.5116V20.2325C40.4651 19.0766 41.4022 18.1395 42.5581 18.1395Z" fill="#1B93C5"/>
<path fill-rule="evenodd" clip-rule="evenodd" d="M17.4419 18.1395C18.5978 18.1395 19.5349 19.0766 19.5349 20.2325V26.5116C19.5349 27.6675 18.5978 28.6046 17.4419 28.6046C16.286 28.6046 15.3489 27.6675 15.3489 26.5116V20.2325C15.3489 19.0766 16.286 18.1395 17.4419 18.1395Z" fill="#1B93C5"/>
</svg>
